<?xml version="1.0" encoding="UTF-8"?>
<svg version="1.1" xmlns="http://www.w3.org/2000/svg" width="1388" height="1036">
<path d="M0 0 C58.60991426 -1.54372031 120.03927917 15.5661502 165.83398438 53.06640625 C166.34703125 53.47793945 166.86007812 53.88947266 167.38867188 54.31347656 C181.9063911 65.96918273 194.7687512 79.10008593 205.83398438 94.06640625 C206.50300781 94.92878906 207.17203125 95.79117188 207.86132812 96.6796875 C237.64843774 135.84760464 253.57880006 186.11421789 254.83398438 235.06640625 C254.87394531 236.17113281 254.91390625 237.27585937 254.95507812 238.4140625 C256.11397503 298.8812127 237.00138021 359.34454378 202.83398438 409.06640625 C202.4019873 409.69659668 201.96999023 410.32678711 201.52490234 410.97607422 C194.02768716 421.8426328 185.83305152 431.99356508 176.93164062 441.75 C175.12806824 443.74165442 173.38292342 445.76662482 171.64648438 447.81640625 C163.68629947 456.92167575 155.00535214 465.45602936 145.50976562 472.9453125 C142.73732477 475.14302839 140.07476837 477.44271572 137.39648438 479.75390625 C114.29289104 498.92811607 87.60551244 513.69704921 60.83398438 527.06640625 C59.45944092 527.75959961 59.45944092 527.75959961 58.05712891 528.46679688 C1.08284375 557.0689481 -60.40957432 571.27009597 -123.16601562 580.06640625 C-112.85415416 588.95354046 -112.85415416 588.95354046 -101.97851562 597.12890625 C-100.91987305 597.86995605 -100.91987305 597.86995605 -99.83984375 598.62597656 C-91.94631581 604.04712637 -83.67225713 608.68428892 -75.16601562 613.06640625 C-74.47040527 613.42718262 -73.77479492 613.78795898 -73.05810547 614.15966797 C-54.08873639 623.87503079 -34.10692297 629.4336467 -13.16601562 633.06640625 C-12.41384766 633.19917969 -11.66167969 633.33195313 -10.88671875 633.46875 C56.99310813 644.81392294 135.74377841 621.9580477 191.02539062 582.81640625 C196.74520251 578.70884207 202.34917561 574.48298724 207.83398438 570.06640625 C208.35041504 569.65438965 208.8668457 569.24237305 209.39892578 568.81787109 C217.80030298 562.05781396 225.50534658 554.60097196 233.14648438 547.00390625 C234.06550537 546.09415039 234.98452637 545.18439453 235.93139648 544.24707031 C241.98884056 538.16172688 247.53032821 531.81657312 252.83398438 525.06640625 C253.37804932 524.37635498 253.92211426 523.68630371 254.48266602 522.9753418 C266.46742743 507.58742618 276.70739538 491.29079709 285.83398438 474.06640625 C286.36137207 473.07157227 286.36137207 473.07157227 286.89941406 472.05664062 C302.71905008 441.93120935 313.39053653 409.70443602 319.71875 376.30664062 C324.63942357 350.39109314 334.5249982 328.31452568 356.04882812 311.94140625 C377.09059672 297.77583974 401.52157992 292.97365774 426.46655273 297.58569336 C449.00934631 302.26175271 470.1110655 314.95845821 483.07226562 334.2109375 C500.01222413 361.66794341 499.52922264 391.34672935 492.38397217 421.74317932 C491.71820701 424.51767869 491.03122589 427.28653577 490.3371582 430.05407715 C489.8487946 432.00717611 489.3714872 433.96302926 488.89453125 435.91894531 C478.62172953 477.7844292 463.23243553 517.62668178 443.83398438 556.06640625 C443.40633789 556.91750977 442.97869141 557.76861328 442.53808594 558.64550781 C422.63745222 597.9963837 396.19496496 634.29016187 366.2265625 666.56054688 C364.79104349 668.11284022 363.36588537 669.67407703 361.94335938 671.23828125 C355.29542839 678.54637853 348.60896829 685.61929916 341.11132812 692.06640625 C338.9365013 693.97637423 336.81953975 695.93959544 334.70727539 697.91821289 C328.33680517 703.86308546 321.6625358 709.27350804 314.75292969 714.57568359 C312.76769347 716.11790399 310.8112055 717.69160059 308.85742188 719.2734375 C289.88627554 734.52319317 269.20390172 747.46002164 247.83398438 759.06640625 C246.48022705 759.80600586 246.48022705 759.80600586 245.09912109 760.56054688 C177.01020697 797.55532567 98.8714015 816.96791574 -94.18945312 801.33984375 C-99.55478177 799.6955239 -104.86388069 797.90282794 -110.16601562 796.06640625 C-111.0512793 795.76653809 -111.93654297 795.46666992 -112.84863281 795.15771484 C-157.30895975 780.04184317 -198.37839009 756.38261216 -234.16601562 726.06640625 C-234.93347107 725.4212204 -234.93347107 725.4212204 -235.71643066 724.76300049 C-245.248691 716.72915053 -254.26213504 708.28726453 -263.04785156 699.4453125 C-265.05375188 697.42860135 -267.0702556 695.42293264 -269.08789062 693.41796875 C-276.24386744 686.26928433 -282.90498037 679.01892402 -289.16601562 671.06640625 C-290.10018869 669.96406386 -291.04159897 668.8677593 -291.99414062 667.78125 C-348.16601562 603.36479335 -348.16601562 603.36479335 -348.16601562 578.06640625 C-347.52019531 578.17597656 -346.874375 578.28554688 -346.20898438 578.3984375 C-339.65719016 579.50085978 -333.10067234 580.57436359 -326.54101562 581.62890625 C-325.76653076 581.75563721 -324.9920459 581.88236816 -324.1940918 582.01293945 C-314.75673056 583.51937737 -305.46070142 584.22723787 -295.90429688 584.26953125 C-294.84665634 584.27631897 -293.78901581 584.28310669 -292.69932556 584.2901001 C-289.2923587 584.30699721 -285.88552163 584.31329275 -282.47851562 584.31640625 C-281.32226685 584.31874268 -280.16601807 584.3210791 -278.97473145 584.32348633 C-260.53378038 584.33756095 -242.44566641 583.55788113 -224.16601562 581.06640625 C-226.76933 579.76474906 -229.04749234 579.65850495 -231.94726562 579.33984375 C-317.67252716 569.42445499 -401.35046908 536.45629 -468.39648438 474.6171875 C-470.6182888 472.57087115 -472.86635301 470.58576202 -475.16601562 468.62890625 C-482.67223409 462.10993572 -489.77695973 454.93565288 -496.21289062 447.359375 C-497.80741918 445.48739847 -499.42352205 443.64272804 -501.05664062 441.8046875 C-549.89514931 386.598505 -581.7066256 317.530136 -597.66601562 245.94140625 C-597.8320932 245.20026581 -597.99817078 244.45912537 -598.16928101 243.69552612 C-604.77168522 213.95629323 -606.20341312 184.94230088 -589.16601562 158.06640625 C-575.41122517 138.80457679 -555.57285091 126.32245653 -532.45507812 121.59765625 C-508.28413663 117.69356119 -485.13271116 121.90086946 -464.67382812 135.75390625 C-462.41536752 137.44189065 -460.28310765 139.20462217 -458.16601562 141.06640625 C-457.44027344 141.69804687 -456.71453125 142.3296875 -455.96679688 142.98046875 C-438.89723384 158.88822907 -432.63436986 179.51681924 -427.14709473 201.45324707 C-416.50751944 243.98252105 -398.94419369 284.56469498 -370.16601562 318.06640625 C-369.96032959 317.41381836 -369.75464355 316.76123047 -369.54272461 316.08886719 C-356.46631887 274.68810381 -340.83525781 235.26469109 -318.16601562 198.06640625 C-317.65039062 197.21320801 -317.13476562 196.36000977 -316.60351562 195.48095703 C-305.55648379 177.26701945 -292.82365748 160.39307397 -279.16601562 144.06640625 C-278.64233398 143.43831055 -278.11865234 142.81021484 -277.57910156 142.16308594 C-272.02282332 135.51963499 -266.38390681 129.10664341 -260.16601562 123.06640625 C-258.28060507 121.1809957 -256.56606549 119.23329263 -254.85351562 117.19140625 C-250.54420225 112.17548491 -245.60565096 107.84629933 -240.69042969 103.44238281 C-239.26043451 102.15163124 -237.84921742 100.84016151 -236.43945312 99.52734375 C-229.86937616 93.42240497 -222.99103746 87.85580365 -215.88623047 82.39697266 C-214.28680429 81.15983489 -212.70417615 79.9010631 -211.12304688 78.640625 C-151.76049015 31.71886283 -75.74496649 2.32220817 0 0 Z M-26.16601562 188.06640625 C-27.08946777 188.33485352 -28.01291992 188.60330078 -28.96435547 188.87988281 C-72.85593844 201.94104591 -112.9932202 228.78633156 -141.16601562 265.06640625 C-141.96523438 266.071875 -142.76445313 267.07734375 -143.58789062 268.11328125 C-170.52449408 302.22947502 -200.15499764 354.31431098 -198.16601562 399.06640625 C-125.89269001 408.54487518 -36.62974457 381.32011587 20.72070312 337.58203125 C47.15684539 316.58096494 66.42721003 288.05528956 70.83398438 254.06640625 C72.07203838 235.57596114 70.02947319 217.52733056 57.70898438 202.87890625 C46.39309998 190.96548341 30.05252442 184.32223368 13.71679688 183.73046875 C-0.09893829 183.5428187 -12.88799881 184.16187792 -26.16601562 188.06640625 Z " fill="#FFBA00" transform="translate(758.166015625,137.93359375)"/>
<path d="M0 0 C26.56049843 -0.80415872 49.63128877 8.25772668 69.4921875 25.8671875 C85.29137578 40.8237524 93.3390359 62.5370911 94.0078125 83.96044922 C94.27994719 101.41837549 91.29479783 117.2806151 87.06567383 134.1439209 C86.57731023 136.09701986 86.10000283 138.05287301 85.62304688 140.00878906 C75.35024515 181.87427295 59.96095115 221.71652553 40.5625 260.15625 C40.13485352 261.00735352 39.70720703 261.85845703 39.26660156 262.73535156 C19.36596785 302.08622745 -7.07651942 338.38000562 -37.04492188 370.65039062 C-38.48044088 372.20268397 -39.905599 373.76392078 -41.328125 375.328125 C-47.97605599 382.63622228 -54.66251609 389.70914291 -62.16015625 396.15625 C-64.33498307 398.06621798 -66.45194463 400.02943919 -68.56420898 402.00805664 C-74.93467921 407.95292921 -81.60894857 413.36335179 -88.51855469 418.66552734 C-90.5037909 420.20774774 -92.46027888 421.78144434 -94.4140625 423.36328125 C-113.38520883 438.61303692 -134.06758266 451.54986539 -155.4375 463.15625 C-156.79125732 463.89584961 -156.79125732 463.89584961 -158.17236328 464.65039062 C-226.2612774 501.64516942 -304.40008287 521.05775949 -497.4609375 505.4296875 C-502.82626615 503.78536765 -508.13536506 501.99267169 -513.4375 500.15625 C-514.32276367 499.85638184 -515.20802734 499.55651367 -516.12011719 499.24755859 C-560.58044412 484.13168692 -601.64987447 460.47245591 -637.4375 430.15625 C-637.94913696 429.7261261 -638.46077393 429.2960022 -638.98791504 428.85284424 C-648.52017537 420.81899428 -657.53361942 412.37710828 -666.31933594 403.53515625 C-668.32523626 401.5184451 -670.34173998 399.51277639 -672.359375 397.5078125 C-679.51535182 390.35912808 -686.17646474 383.10876777 -692.4375 375.15625 C-693.37167306 374.05390761 -694.31308335 372.95760305 -695.265625 371.87109375 C-713.42430246 351.04719105 -728.10170077 327.39116409 -741.5625 303.34375 C-742.30971313 302.02564331 -742.30971313 302.02564331 -743.07202148 300.6809082 C-743.52520752 299.86195068 -743.97839355 299.04299316 -744.4453125 298.19921875 C-745.05850342 297.10130005 -745.05850342 297.10130005 -745.68408203 295.98120117 C-745.93270996 295.37896729 -746.18133789 294.7767334 -746.4375 294.15625 C-746.1075 293.49625 -745.7775 292.83625 -745.4375 292.15625 C-744.82865967 292.77556396 -744.21981934 293.39487793 -743.5925293 294.03295898 C-741.28004851 296.38000339 -738.96276982 298.72210912 -736.64233398 301.0612793 C-735.64858174 302.06494508 -734.6566471 303.07041454 -733.66674805 304.07788086 C-726.93335817 310.92754054 -719.96990583 317.17370286 -712.4375 323.15625 C-711.40984034 324.01950777 -710.38640887 324.88788155 -709.37109375 325.765625 C-653.47403059 373.70238652 -582.71382384 400.9953093 -510.4375 411.15625 C-509.48311035 411.29192383 -508.5287207 411.42759766 -507.54541016 411.56738281 C-478.8370354 415.4124962 -447.11074859 415.11683564 -418.4375 411.15625 C-417.34276367 411.01622559 -416.24802734 410.87620117 -415.12011719 410.73193359 C-373.31300782 405.26624715 -332.21333666 392.87336818 -294.4375 374.15625 C-292.97642822 373.43501953 -292.97642822 373.43501953 -291.48583984 372.69921875 C-252.83852644 353.46121937 -218.6507989 327.36418962 -188.125 296.96875 C-187.3719458 296.22036865 -186.6188916 295.4719873 -185.84301758 294.70092773 C-146.56856583 255.31348099 -117.14602301 204.66307806 -99.4375 152.15625 C-99.07962402 151.104375 -98.72174805 150.0525 -98.35302734 148.96875 C-90.92827366 126.86206745 -85.23901472 104.00760464 -82.875 80.78125 C-80.74944714 60.16436976 -73.26558603 42.76067119 -59.4375 27.15625 C-58.84710937 26.47175781 -58.25671875 25.78726562 -57.6484375 25.08203125 C-43.20310247 9.43804076 -20.95101355 0.9523188 0 0 Z " fill="#F5861C" transform="translate(1161.4375,433.84375)"/>
<path d="M0 0 C0.72574219 0.63164062 1.45148438 1.26328125 2.19921875 1.9140625 C19.26878179 17.82182282 25.53164577 38.45041299 31.0189209 60.38684082 C41.36458204 101.7412601 58.19555996 141.91117234 86.04296875 174.67578125 C87.85737184 176.83061126 89.52130163 179.04266649 91.1875 181.3125 C126.14847396 226.49408351 185.49653892 248.81720186 240.2734375 256.21875 C250.16632167 257.44296253 260.04075391 257.83722442 270 258 C270.78681152 258.02046387 271.57362305 258.04092773 272.38427734 258.06201172 C346.49945833 259.97946669 434.94542339 237.1894286 490.20336914 185.72167969 C507.83774729 168.85839155 520.27991806 147.74586646 526 124 C526.33 124 526.66 124 527 124 C523.85864346 192.48157261 485.13910724 262.58669869 442 314 C441.37168022 314.75389763 441.37168022 314.75389763 440.73066711 315.52302551 C433.57122075 324.09700883 426.09052711 332.22867689 418.16333008 340.09741211 C416.42745269 341.82248477 414.7026491 343.55811991 412.97851562 345.29492188 C406.29275569 351.98858074 399.42658978 358.1279399 392 364 C390.97215907 364.86304193 389.94874902 365.73144668 388.93359375 366.609375 C370.5821348 382.34740239 350.08222793 395.42763768 328.88232422 406.97070312 C327.05050961 407.97238022 325.22993356 408.99228079 323.41015625 410.015625 C305.27272367 420.09060457 285.63849928 427.57926831 266.03955078 434.28613281 C264.24221127 434.91522315 262.46129851 435.59083238 260.68359375 436.2734375 C212.00087581 453.80667691 130.28072271 419.33167526 87.02734375 399.359375 C51.4814487 382.58260886 18.57438887 360.29714424 -10.23046875 333.55078125 C-12.45227318 331.5044649 -14.70033738 329.51935577 -17 327.5625 C-24.50621847 321.04352947 -31.6109441 313.86924663 -38.046875 306.29296875 C-39.64140356 304.42099222 -41.25750642 302.57632179 -42.890625 300.73828125 C-91.72913368 245.53209875 -123.54060997 176.46372975 -139.5 104.875 C-139.66607758 104.13385956 -139.83215515 103.39271912 -140.00326538 102.62911987 C-146.60566959 72.88988698 -148.03739749 43.87589463 -131 17 C-116.5354986 -3.25568911 -95.43171351 -15.87752725 -71 -20 C-45.70853505 -24.00392585 -19.27838353 -16.95353208 0 0 Z " fill="#FFD300" transform="translate(300,279)"/>
<path d="M0 0 C-1.5626152 3.1252304 -4.67263546 3.47371512 -7.8125 4.5625 C-51.01938816 20.23410125 -94.3612462 46.07819604 -126.4375 79.4375 C-128.17065598 81.17065598 -130.00188648 82.73206047 -131.875 84.3125 C-136.70103001 88.47832166 -140.7971789 93.22046245 -145 98 C-146.45822191 99.58343595 -147.91655563 101.16676895 -149.375 102.75 C-154.91006761 108.91709955 -159.99951285 115.39681351 -165 122 C-165.7741626 123.0214209 -165.7741626 123.0214209 -166.56396484 124.06347656 C-180.48050052 142.55954803 -191.59518918 162.35981274 -202 183 C-202.37608398 183.7321875 -202.75216797 184.464375 -203.13964844 185.21875 C-222.18529499 222.41588129 -232.32474537 265.53070999 -236 307 C-236.11214844 308.19238281 -236.22429687 309.38476562 -236.33984375 310.61328125 C-238.6231192 339.73286268 -237.19202325 369.27080469 -232 398 C-241.22268824 398.31947031 -250.02955995 397.40247768 -259.125 395.9375 C-259.81776031 395.82773834 -260.51052063 395.71797668 -261.22427368 395.60488892 C-315.15005546 386.96538328 -362.66364846 362.91127234 -400 323 C-402.25556703 319.61664946 -402.11790139 318.31260597 -401.5078125 314.41796875 C-400.47956223 309.52191553 -398.99570883 304.77026186 -397.5 300 C-397.14252686 298.85571533 -396.78505371 297.71143066 -396.41674805 296.5324707 C-379.01157065 241.63980064 -351.40963264 188.51734016 -313.51171875 144.9140625 C-311.10245769 142.11887005 -308.7975562 139.26219451 -306.5 136.375 C-302.48681697 131.43403809 -298.09409543 126.99355182 -293.55078125 122.55078125 C-291.43367802 120.43367802 -289.48182994 118.29292214 -287.5625 116 C-283.30458731 111.02057943 -278.39405862 106.73905748 -273.52441406 102.37597656 C-272.09441888 101.08522499 -270.6832018 99.77375526 -269.2734375 98.4609375 C-262.70336053 92.35599872 -255.82502184 86.7893974 -248.72021484 81.33056641 C-247.12078866 80.09342864 -245.53816052 78.83465685 -243.95703125 77.57421875 C-175.88053071 23.76472091 -86.84975561 -6.70839492 0 0 Z " fill="#FF9F00" transform="translate(791,139)"/>
<path d="M0 0 C0.33 0 0.66 0 1 0 C0.56603721 10.51246384 -1.00630398 20.38839613 -3.3125 30.625 C-3.56785522 31.77353958 -3.56785522 31.77353958 -3.82836914 32.94528198 C-9.36298964 57.58644937 -17.3256446 82.09343574 -28 105 C-28.6487207 106.41418213 -28.6487207 106.41418213 -29.31054688 107.85693359 C-52.86940729 159.02231872 -88.11785052 209.11496481 -133 244 C-134.85710546 245.57988537 -136.71109329 247.1634403 -138.5625 248.75 C-177.40636024 281.11988354 -224.43568465 305.28179737 -273 319 C-274.09844238 319.31179199 -275.19688477 319.62358398 -276.32861328 319.94482422 C-295.72043799 325.37287216 -315.03167037 329.34229349 -335 332 C-335.9398877 332.13132324 -336.87977539 332.26264648 -337.84814453 332.39794922 C-366.53707017 336.24942803 -398.34819192 336.02885492 -427 332 C-428.14791016 331.84402344 -429.29582031 331.68804688 -430.47851562 331.52734375 C-470.84513649 325.9064115 -510.19522298 314.60342828 -547 297 C-547.87994629 296.58540527 -548.75989258 296.17081055 -549.66650391 295.74365234 C-581.0021812 280.91343028 -610.11655389 261.02567694 -636 238 C-636.50982422 237.54802246 -637.01964844 237.09604492 -637.54492188 236.63037109 C-645.51629919 229.53232088 -653.06842613 222.04394056 -660.56469727 214.45117188 C-661.55236936 213.45257978 -662.55804038 212.47157556 -663.57788086 211.50585938 C-666.01936101 208.92061481 -668 205.60354157 -668 202 C-667.35417969 202.10957031 -666.70835937 202.21914063 -666.04296875 202.33203125 C-659.49117453 203.43445353 -652.93465672 204.50795734 -646.375 205.5625 C-645.60051514 205.68923096 -644.82603027 205.81596191 -644.02807617 205.9465332 C-634.59070526 207.45297266 -625.29469187 208.16078092 -615.73828125 208.203125 C-614.15243225 208.21337456 -614.15243225 208.21337456 -612.5345459 208.22383118 C-609.12716454 208.24084438 -605.71992134 208.24715761 -602.3125 208.25 C-601.15326019 208.25200409 -599.99402039 208.25400818 -598.7996521 208.256073 C-581.39356841 208.26344776 -564.31224728 207.64836 -547.04223633 205.38891602 C-546.03829834 205.26057373 -545.03436035 205.13223145 -544 205 C-542.7102124 204.82073975 -541.4204248 204.64147949 -540.09155273 204.45678711 C-534.0229646 203.79478153 -527.95001191 203.88848348 -521.85245514 203.92483521 C-519.65543144 203.93778103 -517.4584693 203.94416088 -515.26141357 203.94897461 C-509.80432952 203.96223599 -504.34730433 203.9863809 -498.89025879 204.01037598 C-494.27062033 204.03028304 -489.65100457 204.04585118 -485.03133392 204.05593872 C-482.89074028 204.06231353 -480.75024331 204.07482015 -478.60968018 204.08764648 C-469.49726477 204.12213526 -460.33206396 204.04441065 -451.31939697 202.55786133 C-448.49184617 202.09385456 -446.76472367 202.17550525 -444 203 C-440.35459771 205.62268968 -437.1223054 208.53164074 -433.82421875 211.5703125 C-422.372061 222.06441613 -408.74215546 229.92052341 -395 237 C-393.95658447 237.54116455 -393.95658447 237.54116455 -392.89208984 238.09326172 C-373.92272077 247.80862454 -353.94090734 253.36724045 -333 257 C-332.24783203 257.13277344 -331.49566406 257.26554687 -330.72070312 257.40234375 C-262.84087624 268.74751669 -184.09020596 245.89164145 -128.80859375 206.75 C-123.08878186 202.64243582 -117.48480877 198.41658099 -112 194 C-111.48356934 193.5879834 -110.96713867 193.1759668 -110.43505859 192.75146484 C-102.0336814 185.99140771 -94.3286378 178.53456571 -86.6875 170.9375 C-85.30896851 169.57286621 -85.30896851 169.57286621 -83.90258789 168.18066406 C-77.84514382 162.09532063 -72.30365617 155.75016687 -67 149 C-66.45593506 148.30994873 -65.91187012 147.61989746 -65.35131836 146.90893555 C-53.36655694 131.52101993 -43.12658899 115.22439084 -34 98 C-33.4726123 97.00516602 -33.4726123 97.00516602 -32.93457031 95.99023438 C-17.07373675 65.78635037 -6.44782337 33.46252677 0 0 Z " fill="#FE9E00" transform="translate(1078,514)"/>
<path d="M0 0 C8.41544085 5.96229111 13.70429852 13.58450678 18.09375 22.78125 C18.55930801 23.72928497 19.02486603 24.67731995 19.50453186 25.65408325 C20.49168775 27.6657397 21.47375072 29.67990236 22.45101929 31.69638062 C24.98655046 36.92256662 27.56590287 42.12700833 30.14453125 47.33203125 C30.64457169 48.34289291 31.14461212 49.35375458 31.6598053 50.39524841 C36.96891489 61.09306535 42.63843217 71.53405318 48.8359375 81.74609375 C49.33061523 82.56384277 49.82529297 83.3815918 50.33496094 84.22412109 C60.48927107 100.89319201 71.60066572 116.68659208 84.11816406 131.66357422 C85.3560027 133.16425124 86.57444389 134.68100353 87.78027344 136.20751953 C93.44471745 143.32223654 99.5735926 149.79299515 106.01904297 156.18994141 C107.70906992 157.86923803 109.38811514 159.55898344 111.06640625 161.25 C117.68276356 167.87440957 124.50045326 173.91862745 131.8359375 179.74609375 C132.93787156 180.68074844 134.03419529 181.62212117 135.12109375 182.57421875 C160.02271558 204.28871317 188.92457089 221.25717248 217.57958984 237.46826172 C220.67020281 239.21856125 223.75338001 240.98165286 226.8359375 242.74609375 C226.8359375 243.07609375 226.8359375 243.40609375 226.8359375 243.74609375 C218.387076 243.23766333 210.28928465 242.05002917 202.0234375 240.24609375 C200.22350342 239.85405762 200.22350342 239.85405762 198.38720703 239.45410156 C151.46791777 228.92527978 105.8084361 210.66689187 65.8359375 183.74609375 C65.10971191 183.25786133 64.38348633 182.76962891 63.63525391 182.26660156 C50.00082305 173.02673933 37.12048562 162.85790001 24.98828125 151.71484375 C22.99223651 149.88906054 20.95618084 148.1265931 18.8984375 146.37109375 C10.96067135 139.44563381 3.57967175 131.83325435 -3.1640625 123.74609375 C-3.60411621 123.23046875 -4.04416992 122.71484375 -4.49755859 122.18359375 C-25.09155928 98.00773444 -52.04572204 62.57317711 -51.4765625 29.27734375 C-50.62425185 19.64623337 -46.16533375 10.19359102 -38.90625 3.73828125 C-27.28348279 -4.9696854 -12.98781995 -7.52543358 0 0 Z " fill="#FFD400" transform="translate(145.1640625,460.25390625)"/>
<path d="M0 0 C7.48358904 6.35181484 13.14561842 13.88479074 18.1875 22.25 C18.74348877 23.16418701 19.29947754 24.07837402 19.87231445 25.02026367 C44.65363186 66.1897425 59.00345313 111.79520158 64.8125 159.375 C64.9170752 160.22457275 65.02165039 161.07414551 65.12939453 161.94946289 C66.08919654 170.91820312 66.05614067 179.92752097 66.0625 188.9375 C66.06317474 189.79915771 66.06384949 190.66081543 66.06454468 191.54858398 C66.04624888 206.32337806 65.29168994 220.7829853 62.8125 235.375 C62.65152832 236.32616699 62.49055664 237.27733398 62.32470703 238.25732422 C57.73949498 264.09043534 49.29176748 291.29299409 34.8125 313.375 C33.42594658 310.60189316 34.11348497 309.07673763 34.73828125 306.0546875 C34.95709961 304.96986084 35.17591797 303.88503418 35.40136719 302.76733398 C35.64016602 301.60661377 35.87896484 300.44589355 36.125 299.25 C50.32831713 227.71223639 36.26016712 151.31599912 -3.74023438 89.99462891 C-13.40143191 75.60283872 -24.42615523 62.43465412 -36.48828125 50.00390625 C-43.46798815 42.62986562 -47.63818513 34.37876455 -48.4375 24.1875 C-47.87877984 15.66701757 -45.23654769 8.50294832 -39.1875 2.375 C-27.88230132 -7.0459989 -12.41079976 -8.79505495 0 0 Z " fill="#FFBB00" transform="translate(1000.1875,137.625)"/>
<path d="M0 0 C5.83906293 4.77241678 8.90553177 10.56803956 10 18 C13.62943053 78.13733444 -27.38509636 144.64945338 -65.44921875 188.25390625 C-75.06138284 199.07667036 -84.97659479 209.60376097 -96 219 C-97.07024414 219.91410645 -97.07024414 219.91410645 -98.16210938 220.84667969 C-100.34825854 222.7015058 -102.54720446 224.53998915 -104.75 226.375 C-105.86181641 227.31666016 -105.86181641 227.31666016 -106.99609375 228.27734375 C-107.71410156 228.87417969 -108.43210937 229.47101563 -109.171875 230.0859375 C-109.8122168 230.6226709 -110.45255859 231.1594043 -111.11230469 231.71240234 C-113.09080249 233.06193641 -114.65908213 233.57738837 -117 234 C-115.67060101 230.55195559 -114.17794479 227.26998704 -112.48828125 223.984375 C-83.80653174 167.70988186 -63.3538471 110.67975741 -50.85571289 48.72827148 C-42.79383189 8.79847807 -42.79383189 8.79847807 -31.90234375 0.21875 C-22.21892132 -5.98500318 -9.78343495 -5.90006128 0 0 Z " fill="#F48020" transform="translate(1335,495)"/>
<path d="M0 0 C5.30237138 4.5098064 8.59004657 10.09278948 9.31640625 17.015625 C9.57849414 24.28645034 8.78737551 29.76760993 5 36 C4.45085937 36.94359375 4.45085937 36.94359375 3.890625 37.90625 C-20.413638 74.51267081 -79.15773116 96.12744953 -119 107 C-119.85980469 107.23557617 -120.71960937 107.47115234 -121.60546875 107.71386719 C-145.06459009 114.00974929 -169.28970146 117.20113005 -193.5625 117.125 C-194.79935547 117.12886719 -196.03621094 117.13273438 -197.31054688 117.13671875 C-217.32667671 117.11554886 -217.32667671 117.11554886 -222 114 C-215.95386915 111.43898998 -209.89473097 108.93392427 -203.7578125 106.59765625 C-147.90982486 85.31722669 -94.25027544 55.65462218 -50.34716797 14.68115234 C-36.58677431 1.84891759 -18.8148311 -11.04843277 0 0 Z " fill="#F48020" transform="translate(1160,845)"/>
<path d="M0 0 C9.1059266 6.42771289 14.92730981 16.10917816 17 27 C18.49085858 41.0147231 16.58080698 53.28659225 7.90234375 64.75390625 C0.9541894 72.95757925 -9.07394573 80.173804 -20.08374023 81.19287109 C-34.44749015 81.71301127 -46.49768029 80.72324762 -57.9375 71.0078125 C-67.40106085 61.7951794 -72.98210482 51.73043306 -73.24169922 38.37939453 C-73.28987162 26.38446663 -70.72739273 18.06403524 -64 8 C-63.4225 7.113125 -62.845 6.22625 -62.25 5.3125 C-44.96079697 -12.45695867 -19.86226118 -13.47179454 0 0 Z " fill="#FFD400" transform="translate(124,365)"/>
<path d="M0 0 C9.54525964 7.9934783 14.47274065 17.89535418 15.875 30.1875 C16.6236678 43.52314526 12.68851868 54.52144507 4.3125 64.6875 C-4.03296501 73.67613055 -14.99891313 78.23040082 -27.125 78.98828125 C-39.48956544 79.03868029 -51.55056873 74.66711234 -60.5625 66.0625 C-69.32688565 56.32429372 -73.38679271 45.1148777 -73.2109375 32.03125 C-72.31107526 19.0998963 -66.87299088 8.90633812 -57.5546875 0.04296875 C-40.22207817 -13.81781822 -17.36530486 -13.25030371 0 0 Z " fill="#FFBB00" transform="translate(943,64)"/>
<path d="M0 0 C5.17064426 3.35813885 8.99249975 8.3140727 10.81640625 14.1796875 C12.35129921 27.73521584 8.28943811 38.11049162 2.44140625 50.2421875 C-15.67110039 87.90288767 -16.06895761 129.19176124 -12.2512207 169.95898438 C-11.58901826 177.0509963 -10.98950383 184.04688301 -11.18359375 191.1796875 C-40.73757257 154.81586331 -47.04298768 80.33168292 -42.65234375 35.94140625 C-42.42705767 34.10235877 -42.18839272 32.26487876 -41.93359375 30.4296875 C-41.8243457 29.61636963 -41.71509766 28.80305176 -41.60253906 27.96508789 C-40.19511046 19.14280084 -36.54024676 10.5781606 -30.18359375 4.1796875 C-21.2793978 -1.96481758 -10.30428442 -4.51753597 0 0 Z " fill="#FFD400" transform="translate(390.18359375,198.8203125)"/>
<path d="M0 0 C6.62831101 3.95686694 12.79978049 10.18261455 15.09765625 17.70703125 C16.65775148 26.84040432 16.46283512 36.0327443 11.5 44.0625 C6.49912226 50.43529995 0.7360824 54.49167528 -7 56.8125 C-16.18332699 57.7308327 -24.2250721 56.70454837 -31.875 51.1875 C-38.59369752 45.6560422 -42.6345772 39.05988003 -43.890625 30.35546875 C-44.23147219 21.84646201 -42.03298146 13.79958765 -36.625 7.125 C-27.48168842 -2.47777447 -12.23548925 -5.50977 0 0 Z " fill="#F48020" transform="translate(1332.5,419.9375)"/>
</svg>
